<?xml version="1.0" encoding="utf-8"?>
<!-- Generator: Adobe Illustrator 26.0.0, SVG Export Plug-In . SVG Version: 6.00 Build 0)  -->
<svg version="1.1" id="Capa_1" xmlns="http://www.w3.org/2000/svg" xmlns:xlink="http://www.w3.org/1999/xlink" x="0px" y="0px"
	 viewBox="0 0 199.97 199.97" style="enable-background:new 0 0 199.97 199.97;" xml:space="preserve">
<style type="text/css">
	.st0{fill:#F7B614;}
	.st1{stroke:#000000;stroke-miterlimit:10;}
	.st2{fill:none;stroke:#000000;stroke-width:1.8748;stroke-miterlimit:10;}
</style>
<circle class="st0" cx="99.98" cy="99.98" r="99.98"/>
<g>
	<path d="M123.88,121.58c-6.48,0.02-11.25-1.87-15.53-5.16c-3.02-2.33-6.32-3.92-10.21-2.81c-1.62,0.47-3.25,1.31-4.58,2.36
		c-5.3,4.13-11.21,6.08-17.93,5.51c-4.47-0.38-8.37-2.18-12.02-4.71c-1.72-1.19-3.53-2.45-5.49-3.07
		c-3.73-1.18-7.12-0.01-10.09,2.43c-4.08,3.35-8.75,5.18-14.03,5.38c-0.25,0.01-0.5,0.04-0.75,0.04c-1.23-0.02-2.27-0.38-2.43-1.79
		c-0.17-1.52,0.85-2.26,2.13-2.3c5.35-0.18,9.71-2.53,13.96-5.58c5.81-4.18,12.08-3.8,18,0.65c3.77,2.83,7.81,4.8,12.66,4.89
		c4.91,0.09,9.11-1.67,12.96-4.54c2.84-2.12,5.9-3.66,9.56-3.8c3.88-0.14,7.18,1.22,10.15,3.59c3.29,2.62,6.97,4.3,11.21,4.67
		c5.09,0.44,9.49-1.23,13.69-3.98c2.41-1.58,5.03-3.04,7.76-3.88c3.95-1.21,7.78-0.26,11.11,2.27c4.19,3.18,8.65,5.63,14.11,5.69
		c1.47,0.02,2.31,0.9,2.17,2.44c-0.14,1.47-1.22,1.72-2.44,1.7c-4.94-0.1-9.42-1.57-13.43-4.47c-1.16-0.84-2.3-1.73-3.55-2.41
		c-3.99-2.14-7.94-2.04-11.55,0.78C134.46,119.29,129.13,121.7,123.88,121.58z"/>
	<path d="M100.41,134.36c21.76,0,43.52,0,65.27,0.01c0.87,0,1.84-0.13,2.58,0.22c0.72,0.34,1.64,1.19,1.66,1.84
		c0.03,0.64-0.86,1.48-1.54,1.93c-0.5,0.33-1.32,0.24-2,0.24c-43.89,0.01-87.78,0.01-131.67,0c-0.74,0-1.63,0.08-2.18-0.28
		c-0.67-0.43-1.47-1.33-1.43-1.98c0.04-0.65,0.94-1.46,1.65-1.8c0.67-0.32,1.59-0.17,2.39-0.17
		C56.9,134.36,78.66,134.36,100.41,134.36z"/>
	<path d="M55.75,124.44c4.52,0.49,9.34,1.06,14.17,1.54c7.48,0.75,14.93,0.6,22.34-0.78c6.02-1.12,12.01-0.79,18.02,0.21
		c8.61,1.44,17.25,1.39,25.86-0.04c6.33-1.05,12.62-0.95,18.96,0.01c3.99,0.6,8.06,0.73,12.08,1.15c0.88,0.09,1.92,0.33,2.5,0.9
		c0.41,0.4,0.5,1.78,0.14,2.16c-0.58,0.62-1.68,1.14-2.51,1.08c-4.53-0.33-9.06-0.73-13.56-1.32c-5.85-0.77-11.64-0.7-17.47,0.26
		c-9.16,1.51-18.33,1.48-27.51-0.2c-5.79-1.06-11.66-0.84-17.48,0.17c-8.67,1.51-17.35,1.51-26.01,0.01
		c-6.9-1.2-13.76-0.79-20.64,0.16c-3.57,0.49-7.19,0.68-10.79,0.98c-1.41,0.12-2.57-0.39-2.74-1.9c-0.18-1.58,0.96-2.18,2.34-2.31
		C40.77,125.82,48.09,125.15,55.75,124.44z"/>
	<path d="M103.37,89.5c0.77-0.59,1.16-1.12,1.63-1.19c0.76-0.11,1.9-0.22,2.28,0.21c0.47,0.54,0.75,1.97,0.39,2.39
		c-1.69,1.98-3.53,3.86-5.55,5.5c-0.48,0.39-2.06,0.01-2.73-0.52c-1.55-1.22-2.86-2.77-4.28-4.16c-0.88-0.86-1.48-1.88-0.54-2.93
		c0.95-1.07,2.2-0.99,3.37-0.18c0.3,0.2,0.56,0.46,1.09,0.92c0.04-0.89,0.1-1.53,0.1-2.17c0.01-8.16,0-16.31,0-24.47
		c0-0.37-0.01-0.75,0-1.12c0.04-2.05,0.79-3.13,2.16-3.13c1.4,0,2.07,0.97,2.07,3.14c0.01,8.41,0.01,16.81,0.01,25.22
		C103.37,87.72,103.37,88.44,103.37,89.5z"/>
	<path d="M80.29,96.48c0.84-0.61,1.27-1.16,1.75-1.21c0.76-0.07,1.83-0.05,2.26,0.41c0.44,0.48,0.66,1.86,0.3,2.26
		c-1.71,1.97-3.56,3.84-5.57,5.5c-0.47,0.39-1.98,0.11-2.59-0.39c-1.64-1.33-3.05-2.93-4.55-4.43c-0.82-0.82-1.49-1.91-0.41-2.7
		c0.74-0.54,2.01-0.46,3.04-0.46c0.38,0,0.77,0.53,1.41,1.01c0.05-0.86,0.11-1.5,0.12-2.15c0.01-8.04,0-16.09,0.01-24.13
		c0-0.75,0.04-1.49,0.1-2.24c0.11-1.29,0.9-2.37,2.08-2.09c0.82,0.19,1.44,1.44,2.02,2.29c0.2,0.3,0.04,0.85,0.04,1.29
		c0,8.23,0,16.46,0,24.7C80.29,94.79,80.29,95.45,80.29,96.48z"/>
	<path d="M121.88,96.69c0-0.88,0-1.48,0-2.07c0-8.48,0-16.95,0-25.43c0-0.56-0.18-1.27,0.09-1.65c0.5-0.72,1.19-1.61,1.95-1.8
		c1.21-0.3,1.94,0.61,2.09,1.83c0.08,0.62,0.05,1.24,0.05,1.87c0,8.85,0,17.7,0,26.87c0.61-0.41,1.02-0.9,1.46-0.94
		c0.82-0.06,1.83-0.12,2.45,0.29c0.96,0.63,0.95,1.75,0.13,2.6c-1.59,1.67-3.22,3.3-4.89,4.89c-1.11,1.06-2.27,0.85-3.3-0.17
		c-1.42-1.4-2.84-2.8-4.22-4.24c-0.8-0.83-1.62-1.83-0.6-2.92c0.96-1.03,2.22-0.98,3.4-0.2C120.89,95.88,121.25,96.2,121.88,96.69z"
		/>
	<g>
		<path class="st2" d="M160.67,60.89c0,8.88-7.19,16.07-16.07,16.07c-5.04,0-9.54-2.32-12.49-5.96c-2.24-2.76-3.58-6.28-3.58-10.11
			c0-8.88,7.19-16.07,16.07-16.07S160.67,52.01,160.67,60.89z"/>
		<line class="st2" x1="132.11" y1="71" x2="155.56" y2="49.14"/>
	</g>
</g>
</svg>
