<?xml version="1.0" encoding="utf-8"?>
<!-- Generator: Adobe Illustrator 26.0.0, SVG Export Plug-In . SVG Version: 6.00 Build 0)  -->
<svg version="1.1" id="Capa_1" xmlns="http://www.w3.org/2000/svg" xmlns:xlink="http://www.w3.org/1999/xlink" x="0px" y="0px"
	 viewBox="0 0 200 200" style="enable-background:new 0 0 200 200;" xml:space="preserve">
<style type="text/css">
	.st0{fill:#F7B614;}
	.st1{stroke:#000000;stroke-miterlimit:10;}
	.st2{fill:none;stroke:#000000;stroke-width:1.8748;stroke-miterlimit:10;}
</style>
<circle class="st0" cx="100" cy="100.02" r="99.98"/>
<g>
	<path class="st1" d="M144.54,52.5c0.17-0.81,0.33-1.43,0.43-2.07c0.14-0.93,0.43-1.74,1.55-1.75c1.12-0.01,1.42,0.8,1.57,1.73
		c0.71,4.39,3.22,7.23,7.46,8.53c0.51,0.16,1.05,0.24,1.58,0.32c0.89,0.13,1.49,0.56,1.48,1.51c0,0.97-0.68,1.27-1.51,1.53
		c-1.52,0.47-3.03,1.02-4.51,1.6c-0.77,0.3-0.9,0.8-0.53,1.66c2.94,6.79,5.81,13.6,8.7,20.41c0.93,2.2,0.71,2.67-1.64,3.31
		c-6.38,1.74-12.75,3.49-19.14,5.17c-0.99,0.26-1.26,0.65-1.26,1.66c0.03,20.53,0.03,41.06,0.02,61.58c0,2.38-0.34,2.72-2.71,2.72
		c-24.21,0-48.42,0-72.64,0c-2.28,0-2.63-0.36-2.63-2.67c0-6.42,0-12.83,0-19.25c0-0.66,0.07-1.25-0.76-1.61
		c-0.36-0.16-0.62-0.86-0.7-1.35c-0.81-5.04-4.06-8.32-9.2-9.2c-0.94-0.16-1.73-0.5-1.72-1.59c0.01-1.02,0.77-1.35,1.66-1.51
		c5.31-0.98,8.36-4.07,9.25-9.28c0.08-0.45,0.31-1.11,0.65-1.25c0.86-0.37,0.82-0.99,0.81-1.7c-0.01-5.01-0.03-10.02,0.02-15.02
		c0.01-0.85-0.22-1.2-1.07-1.43c-6.58-1.77-13.15-3.59-19.73-5.4c-1.78-0.49-2.12-1.1-1.41-2.77c3.37-7.95,6.61-15.96,10.15-23.83
		c5.51-12.25,15.03-19.52,28.21-22.03c0.49-0.09,1.04-0.43,1.36-0.82c1.23-1.52,2.77-2.26,4.69-1.86c1.96,0.4,3.24,1.65,3.61,3.64
		c0.72,3.87,2.54,7.08,5.74,9.39c7.63,5.53,18.29,1.09,20.32-8.46c0.41-1.93,1.09-3.56,3.05-4.35c1.96-0.79,4.08-0.13,5.43,1.57
		c0.3,0.37,0.77,0.77,1.21,0.85c8.52,1.47,15.76,5.31,21.68,11.63C144.12,52.2,144.23,52.26,144.54,52.5z M138.74,91.72
		c6.4-1.74,12.66-3.45,19.04-5.19c-2.78-6.53-5.48-12.87-8.19-19.22c-0.14,0-0.28-0.01-0.42-0.01c-0.36,1.25-0.76,2.49-1.06,3.75
		c-0.22,0.89-0.42,1.75-1.55,1.76c-1.2,0.01-1.46-0.85-1.6-1.83c-0.64-4.36-3.89-7.79-8.15-8.61c-1.05-0.2-2.33-0.1-2.33-1.64
		c0-1.54,1.31-1.43,2.34-1.65c2.46-0.53,4.52-1.69,6.08-3.79c-5.62-6.47-12.53-10.39-20.84-11.82c-3.14,11.37-9.98,18.82-22.14,18.9
		c-12.35,0.08-19.3-7.39-22.49-18.94c-11.56,2.25-20.32,8.4-25.39,19.13c-3.63,7.69-6.75,15.62-10.09,23.45
		c-0.06,0.14-0.05,0.31-0.08,0.55c6.27,1.72,12.51,3.42,18.9,5.17c0-0.61,0-1.06,0-1.5c0-5.13,0-10.26,0-15.39
		c0-0.33-0.02-0.67,0.01-0.99c0.1-0.85,0.55-1.39,1.44-1.4c0.95-0.01,1.43,0.54,1.51,1.45c0.03,0.37,0.01,0.74,0.01,1.12
		c0,13.99-0.01,27.97,0.03,41.96c0,0.75,0.31,1.64,0.76,2.24c1.79,2.34,4.21,3.66,7.14,4.04c0.86,0.11,1.52,0.48,1.55,1.46
		c0.03,1.05-0.65,1.44-1.56,1.58c-0.16,0.03-0.33,0.04-0.49,0.07c-2.77,0.49-5.05,1.81-6.72,4.07c-0.4,0.55-0.67,1.34-0.68,2.02
		c-0.05,7.9-0.03,15.81-0.03,23.71c0,0.4,0.04,0.79,0.05,1.16c24.05,0,47.98,0,71.96,0c0-0.63,0-1.17,0-1.7c0-27.02,0-54.04,0-81.07
		c0-1.45,0.47-2.11,1.49-2.11c1.02,0,1.48,0.66,1.48,2.12c0,3.68,0,7.37,0,11.05C138.74,87.61,138.74,89.59,138.74,91.72z
		 M99.7,59.55c9.24,0.03,17.57-7.03,19.19-16.27c0.26-1.49-0.16-2.36-1.22-2.54c-1.01-0.17-1.65,0.5-2,1.88
		c-0.35,1.35-0.71,2.73-1.28,3.99c-5.02,10.96-18.89,12.99-26.73,3.94c-2.04-2.36-3.32-5.1-3.88-8.18c-0.22-1.2-1-1.8-1.94-1.63
		c-0.96,0.17-1.43,1-1.26,2.19C81.91,52.19,90.35,59.52,99.7,59.55z M60.82,129.94c1.68-1.67,3.52-3.51,5.17-5.15
		c-1.65-1.65-3.5-3.51-5.16-5.16c-1.7,1.69-3.54,3.52-5.18,5.16C57.33,126.45,59.17,128.3,60.82,129.94z M146.53,65.66
		c1.59-1.59,3.36-3.35,4.93-4.92c-1.59-1.59-3.35-3.34-4.93-4.93c-1.56,1.57-3.32,3.33-4.92,4.94
		C143.18,62.32,144.95,64.08,146.53,65.66z"/>
	<path class="st1" d="M151.63,134.36c-0.99-0.08-1.38-0.67-1.52-1.62c-0.42-2.8-1.86-4.93-4.41-6.2c-0.84-0.42-1.78-0.64-2.71-0.83
		c-0.88-0.18-1.49-0.55-1.51-1.49c-0.02-0.96,0.6-1.37,1.47-1.53c4.18-0.79,6.38-2.95,7.16-7.11c0.17-0.9,0.57-1.51,1.48-1.52
		c0.99-0.01,1.4,0.67,1.55,1.6c0.64,3.89,3.12,6.39,6.97,7.01c0.92,0.15,1.63,0.53,1.64,1.52c0.01,0.99-0.66,1.37-1.6,1.54
		c-4.04,0.74-6.31,3.06-7.03,7.1C152.98,133.69,152.58,134.27,151.63,134.36z M148.68,124.18c0.88,0.89,2.11,2.12,2.96,2.97
		c0.88-0.88,2.09-2.1,2.88-2.88c-0.83-0.89-2.03-2.17-2.81-3C150.78,122.15,149.52,123.37,148.68,124.18z"/>
	<path class="st1" d="M56.09,154.53c-0.27,0.22-0.68,0.86-1.19,0.96c-3.24,0.59-5.13,2.37-5.69,5.67c-0.08,0.48-0.95,1.15-1.45,1.15
		c-0.48-0.01-1.27-0.72-1.37-1.23c-0.61-3.13-2.36-5-5.53-5.5c-0.85-0.13-1.36-0.66-1.34-1.51c0.02-0.86,0.57-1.32,1.42-1.45
		c3.11-0.51,4.89-2.36,5.4-5.45c0.14-0.86,0.65-1.36,1.5-1.35c0.87,0.01,1.34,0.59,1.47,1.41c0.48,3.07,2.27,4.84,5.31,5.38
		C55.5,152.74,56.06,153.17,56.09,154.53z M47.77,156.14c0.7-0.63,1.52-1.36,2.14-1.92c-0.72-0.8-1.45-1.61-2.03-2.24
		c-0.76,0.75-1.51,1.5-2.14,2.13C46.36,154.72,47.13,155.5,47.77,156.14z"/>
	<path class="st1" d="M91.56,86.03c0,1.95,0.02,3.89,0,5.84c-0.02,2.31-0.96,4.19-2.9,5.46c-2.21,1.45-4.46,2.86-6.76,4.15
		c-0.53,0.29-1.5,0.27-2.04-0.03c-2.24-1.24-4.4-2.62-6.56-4c-2.03-1.3-3.07-3.19-3.08-5.62c-0.01-3.97-0.01-7.95,0-11.92
		c0-1.44,0.5-1.94,1.94-1.94c5.84-0.01,11.67-0.01,17.51,0c1.42,0,1.9,0.51,1.91,1.97C91.57,81.97,91.56,84,91.56,86.03z
		 M73.19,80.97c0,3.86-0.1,7.62,0.07,11.36c0.04,0.86,0.83,1.92,1.58,2.48c1.71,1.29,3.59,2.35,5.45,3.43
		c0.3,0.18,0.88,0.17,1.19-0.01c1.75-1.01,3.46-2.1,5.19-3.16c1.32-0.8,1.94-1.94,1.92-3.5c-0.03-3.22-0.01-6.45-0.01-9.68
		c0-0.31-0.06-0.62-0.09-0.94C83.38,80.97,78.38,80.97,73.19,80.97z"/>
	<path class="st1" d="M129.05,115.59c0,4.26-0.01,8.51,0,12.77c0,0.99-0.32,1.72-1.41,1.83c-0.95,0.09-1.57-0.6-1.57-1.77
		c-0.02-3.14-0.01-6.28-0.01-9.42c0-5.41,0.01-10.83-0.01-16.24c0-1.02,0.23-1.84,1.41-1.95c0.99-0.1,1.57,0.61,1.57,1.9
		C129.06,106.99,129.05,111.29,129.05,115.59z"/>
	<path class="st1" d="M129.06,97.12c0,0.98-0.36,1.69-1.45,1.76c-0.97,0.06-1.53-0.64-1.53-1.8c0-0.99,0.36-1.69,1.45-1.76
		C128.49,95.26,129.06,95.96,129.06,97.12z"/>
</g>
</svg>
