<?xml version="1.0" encoding="utf-8"?>
<!-- Generator: Adobe Illustrator 26.0.0, SVG Export Plug-In . SVG Version: 6.00 Build 0)  -->
<svg version="1.1" id="Capa_1" xmlns="http://www.w3.org/2000/svg" xmlns:xlink="http://www.w3.org/1999/xlink" x="0px" y="0px"
	 viewBox="0 0 199.97 199.97" style="enable-background:new 0 0 199.97 199.97;" xml:space="preserve">
<style type="text/css">
	.st0{fill:#F7B614;}
	.st1{stroke:#000000;stroke-miterlimit:10;}
	.st2{fill:none;stroke:#000000;stroke-width:1.8748;stroke-miterlimit:10;}
</style>
<circle class="st0" cx="99.98" cy="99.98" r="99.98"/>
<g>
	<path d="M98.69,145.42c-5.3,5.3-10.26,10.26-15.22,15.23c-2.08,2.08-2.6,2.11-4.91,0.22c-7.45-6.09-14.88-12.19-22.35-18.25
		c-1.05-0.85-1.52-1.77-1.52-3.14c0.04-15.5,0.03-31,0.01-46.5c0-1.12,0.27-2.01,1.12-2.79c5.55-5.12,8.14-11.64,8.74-19.02
		c0.78-9.57-1.37-18.64-4.87-27.46c-0.99-2.48-0.78-3.11,1.6-4.3c5.25-2.63,10.5-5.28,15.77-7.86c0.78-0.38,1.73-0.61,2.6-0.62
		c12.58-0.04,25.17-0.04,37.75,0c0.83,0,1.73,0.21,2.47,0.58c5.35,2.62,10.68,5.31,16.01,7.98c2.13,1.07,2.4,1.81,1.49,4.03
		c-3.13,7.61-5.07,15.5-5.16,23.75c-0.08,7.33,1.55,14.2,6.27,20.06c0.6,0.74,1.19,1.54,1.94,2.11c1.54,1.18,1.9,2.66,1.89,4.53
		c-0.06,15.14-0.05,30.27-0.01,45.41c0,1.41-0.44,2.38-1.54,3.27c-7.61,6.17-15.18,12.4-22.77,18.6c-1.71,1.39-2.52,1.34-4.1-0.24
		c-4.74-4.74-9.48-9.47-14.21-14.22C99.32,146.43,99.08,145.97,98.69,145.42z M119.93,36.4c-0.33,1.73-0.6,3.26-0.92,4.77
		c-1.88,8.94-4.4,17.67-8.82,25.73c-2.43,4.44-5.41,8.44-9.7,11.29c-1.78,1.18-3.55,2.39-5.37,3.52c-0.73,0.46-1.03,0.95-1.03,1.85
		c0.03,16.77,0.01,33.55,0.06,50.32c0,0.67,0.37,1.5,0.84,1.98c6.76,6.84,13.58,13.63,20.38,20.43c0.25,0.25,0.52,0.48,0.83,0.75
		c7.09-5.81,14.15-11.57,21.18-17.37c0.34-0.28,0.49-0.94,0.49-1.43c0.04-2.87,0.02-5.74,0.02-8.61c0-0.8,0-1.59,0-2.43
		c-5.1,0-9.97,0.01-14.85,0c-1.87,0-2.65-0.79-2.66-2.67c-0.01-2.6-0.01-5.2,0-7.79c0.01-1.88,0.78-2.66,2.66-2.66
		c3.87-0.01,7.75,0,11.62,0c1.03,0,2.07,0,3.1,0c0.06-0.27,0.11-0.4,0.11-0.52c0.01-6.56,0.02-13.13-0.02-19.69
		c0-0.5-0.38-1.09-0.75-1.48c-5.6-5.79-8.33-12.82-9.06-20.73c-0.67-7.27,0.4-14.36,2.36-21.33c0.7-2.49,1.56-4.93,2.37-7.49
		C128.53,40.7,124.31,38.59,119.93,36.4z M59.1,127.21c0,3.77,0.03,7.33-0.02,10.88c-0.01,0.85,0.23,1.41,0.9,1.96
		c4.89,3.95,9.75,7.95,14.62,11.93c2.07,1.69,4.14,3.39,6.03,4.93c4.92-4.89,9.72-9.67,14.63-14.56c-1.45-1.44-3.03-2.88-4.45-4.47
		c-0.55-0.62-1.03-1.57-1.03-2.38c-0.06-17.92-0.04-35.83-0.06-53.75c0-1.17,0.41-2,1.4-2.61c1.14-0.72,2.25-1.49,3.32-2.2
		C83.24,65.68,80.12,51.13,76.97,36.5c-0.41,0.19-0.82,0.37-1.22,0.57c-3.42,1.7-6.83,3.45-10.28,5.09
		c-1.06,0.5-1.31,0.97-0.88,2.14c3.27,8.8,5.16,17.84,4.34,27.29c-0.69,7.96-3.47,15.03-9.11,20.85c-0.41,0.43-0.7,1.17-0.7,1.77
		c-0.05,6.2-0.03,12.4-0.03,18.6c0,0.39,0.05,0.79,0.08,1.25c0.6,0,1.09,0,1.59,0c4.42,0,8.84-0.01,13.27,0.01
		c1.72,0.01,2.55,0.81,2.57,2.48c0.03,2.74,0.03,5.47,0,8.21c-0.02,1.6-0.86,2.41-2.48,2.43c-2.69,0.03-5.38,0.01-8.07,0.01
		C63.78,127.21,61.51,127.21,59.1,127.21z M113.88,44.11c-10.36,0-20.5,0-30.65,0c0.68,4.5,3.93,14.02,6.48,19.01
		c2.01,3.92,4.36,7.58,7.8,10.44c0.74,0.62,1.31,0.7,1.97-0.01c1.42-1.54,3.02-2.94,4.24-4.62
		C109.07,61.51,111.63,52.94,113.88,44.11z M81.34,35.35c0.28,1.5,0.54,2.87,0.8,4.25c10.95,0,21.79,0,32.71,0
		c0.26-1.42,0.51-2.79,0.78-4.25C104.2,35.35,92.87,35.35,81.34,35.35z M59.16,122.73c4.41,0,8.7,0,12.96,0c0-1.48,0-2.86,0-4.21
		c-4.37,0-8.64,0-12.96,0C59.16,119.94,59.16,121.29,59.16,122.73z M124.82,122.73c4.4,0,8.7,0,12.96,0c0-1.48,0-2.86,0-4.21
		c-4.37,0-8.64,0-12.96,0C124.82,119.94,124.82,121.29,124.82,122.73z"/>
	<path d="M102.86,90.06c-0.04,1.18-1.07,2.15-2.24,2.11c-1.19-0.04-2.15-1.06-2.11-2.25c0.04-1.19,1.06-2.15,2.24-2.11
		C101.94,87.86,102.9,88.88,102.86,90.06z"/>
	<path d="M100.7,109.68c-1.19,0.01-2.18-0.98-2.19-2.17c-0.01-1.19,0.97-2.18,2.16-2.19c1.19-0.01,2.18,0.98,2.19,2.16
		C102.87,108.68,101.88,109.68,100.7,109.68z"/>
	<path d="M102.86,125.04c-0.01,1.18-1.02,2.17-2.2,2.16c-1.19-0.01-2.17-1.02-2.15-2.2c0.01-1.19,1.01-2.17,2.2-2.15
		C101.89,122.85,102.87,123.85,102.86,125.04z"/>
</g>
</svg>
