<?xml version="1.0" encoding="utf-8"?>
<!-- Generator: Adobe Illustrator 26.0.0, SVG Export Plug-In . SVG Version: 6.00 Build 0)  -->
<svg version="1.1" id="Capa_1" xmlns="http://www.w3.org/2000/svg" xmlns:xlink="http://www.w3.org/1999/xlink" x="0px" y="0px"
	 viewBox="0 0 199.97 199.97" style="enable-background:new 0 0 199.97 199.97;" xml:space="preserve">
<style type="text/css">
	.st0{fill:#F7B614;}
	.st1{stroke:#000000;stroke-miterlimit:10;}
	.st2{fill:none;stroke:#000000;stroke-width:1.8748;stroke-miterlimit:10;}
</style>
<circle class="st0" cx="99.98" cy="99.98" r="99.98"/>
<g>
	<path d="M83.08,150.45c-1.5-0.79-2.03-2.04-1.91-3.7c0.08-1.21,0.02-2.42,0.02-3.81c-0.81,0-1.57,0.01-2.34,0
		c-1.98-0.02-3.04-1.07-3.04-3.05c-0.01-5.67,0-11.35,0-17.02c0-0.38,0-0.76,0-1.14c-0.05-0.01-0.11-0.01-0.16-0.02
		c-0.8,3.75-1.59,7.5-2.38,11.26c-0.52,2.48-1.03,4.96-1.55,7.43c-0.37,1.77-1.32,2.54-3.15,2.54c-2.57,0.01-5.14,0.01-7.71,0
		c-1.92-0.01-2.92-0.93-3.06-2.82c-0.82-10.65-1.04-21.31-0.62-31.99c0.05-1.19,0.63-1.85,1.62-1.84c1.02,0.01,1.59,0.72,1.59,1.98
		c0.01,7.17-0.04,14.34,0.04,21.51c0.04,3.28,0.32,6.55,0.5,9.88c2.6,0,5.08,0,7.64,0c0.55-2.58,1.11-5.15,1.65-7.73
		c1.83-8.68,3.65-17.37,5.46-26.05c0.09-0.41,0.14-0.85,0.14-1.27c0.01-9.74,0.01-19.49,0-29.23c0-0.42-0.04-0.86-0.18-1.25
		c-1.63-4.49-3.29-8.96-4.94-13.44c-0.06-0.16-0.15-0.31-0.39-0.79c-1.16,2.66-2.31,5.01-3.23,7.46c-2.73,7.25-4.19,14.8-5.17,22.45
		c-0.34,2.69-0.58,5.39-0.87,8.08c-0.12,1.13-0.84,1.81-1.79,1.71c-0.93-0.1-1.51-0.8-1.41-1.91c1.11-12.36,2.9-24.58,8.16-36
		c0.89-1.94,2.08-3.73,3.09-5.61c0.44-0.82,1.09-1.35,1.98-1.48c2.32-0.34,3.43-1.41,3.59-3.97c0.19-2.97,1.57-5.61,4-7.54
		c4.28-3.39,10.24-2.98,14.19,1.02c3.66,3.71,7.27,7.46,10.9,11.2c0.32,0.33,0.62,0.68,1.2,1.32c0.29-0.47,0.44-0.85,0.71-1.12
		c3.52-3.64,7.1-7.24,10.59-10.91c3.1-3.26,6.77-4.6,11.14-3.33c4.41,1.28,6.65,4.54,7.55,8.87c0.07,0.35,0.22,0.71,0.18,1.05
		c-0.21,2.05,0.88,2.91,2.74,3.18c1.44,0.21,2.33,1.15,3.08,2.38c3.65,5.97,5.88,12.49,7.49,19.24c2.41,10.1,3.42,20.38,3.88,30.73
		c0.43,9.74,0.29,19.48-0.25,29.21c-0.08,1.53-0.18,3.07-0.36,4.59c-0.17,1.46-1.2,2.38-2.68,2.4c-2.82,0.04-5.64,0.04-8.46,0
		c-1.47-0.02-2.38-0.88-2.73-2.52c-1.19-5.58-2.35-11.16-3.53-16.74c-0.14-0.65-0.3-1.29-0.6-1.91c0,5.85,0,11.69,0,17.54
		c0,2.8-0.84,3.64-3.62,3.64c-0.53,0-1.07,0-1.77,0c0,1.35-0.07,2.66,0.02,3.96c0.11,1.64-0.47,2.83-1.95,3.55
		C111.93,150.45,97.51,150.45,83.08,150.45z M130.46,139.7c0-0.55,0-1,0-1.46c0-19.49,0.06-38.97-0.05-58.46
		c-0.02-3.93,0.51-7.6,2.04-11.22c1.53-3.64,2.76-7.4,4.16-11.19c-3.01-0.99-5.99-1.85-8.87-2.96c-1.85-0.72-3.21-0.61-4.93,0.6
		c-2.42,1.7-5.21,2.89-8,4.39c0,0.09,0,0.49,0,0.88c0,4.39,0,8.78,0,13.17c0,1.27-0.57,2-1.55,2.04c-1.02,0.04-1.66-0.74-1.67-2.04
		c-0.01-3,0-6,0-8.99c0-1.46,0-2.91,0-4.19c-4.6,0-9.1,0-13.69,0c0,2.52,0,5.16,0,7.8c0,1.93,0.07,3.86-0.05,5.78
		c-0.03,0.52-0.51,1.22-0.98,1.45c-0.42,0.2-1.26,0.04-1.61-0.29c-0.37-0.34-0.55-1.07-0.55-1.63c-0.04-4.43-0.05-8.85,0-13.28
		c0.01-0.81-0.25-1.13-0.99-1.46c-2.26-1.03-4.67-1.92-6.63-3.39c-1.89-1.41-3.48-1.6-5.59-0.75c-2.76,1.11-5.65,1.92-8.56,2.88
		c0.15,0.45,0.27,0.82,0.4,1.18c1.76,4.78,3.54,9.56,5.27,14.35c0.26,0.72,0.41,1.52,0.41,2.28c0.02,21.06,0.02,42.11,0.02,63.17
		c0,0.44,0,0.89,0,1.35C96.22,139.7,113.24,139.7,130.46,139.7z M139.06,60.01c-1.81,4.93-3.55,9.64-5.26,14.35
		c-0.13,0.35-0.12,0.77-0.12,1.16c-0.01,9.63-0.01,19.27,0,28.9c0,0.56,0.07,1.14,0.19,1.69c1.73,8.27,3.48,16.53,5.22,24.79
		c0.62,2.92,1.23,5.84,1.85,8.74c2.58,0,5.06,0,7.59,0c0.09-1.23,0.2-2.4,0.27-3.57c0.73-13.66,0.79-27.32-0.58-40.95
		c-0.82-8.14-2.12-16.18-4.52-24.02C142.54,67.33,141.11,63.65,139.06,60.01z M125.02,143.03c-13.58,0-27.04,0-40.53,0
		c0,1.43,0,2.79,0,4.15c13.55,0,27.02,0,40.53,0C125.02,145.78,125.02,144.44,125.02,143.03z M132.04,52.41
		c-0.19-0.93-0.33-1.69-0.51-2.44c-0.7-2.85-2.32-4.89-5.22-5.67c-2.97-0.8-5.46,0.12-7.56,2.31c-3.11,3.24-6.26,6.44-9.39,9.67
		c-0.18,0.18-0.32,0.4-0.59,0.75c5.52-0.69,10.21-2.78,14.31-6.17c0.87-0.72,1.65-0.92,2.73-0.53
		C127.78,51.06,129.81,51.68,132.04,52.41z M77.36,52.47c2.43-0.81,4.56-1.5,6.67-2.24c0.83-0.29,1.45-0.09,2.17,0.4
		c1.99,1.37,3.98,2.76,6.1,3.9c2.57,1.38,5.37,2.17,8.36,2.33c-3.69-3.87-7.25-7.88-11.26-11.37c-3.55-3.09-9.14-1.36-10.91,3.02
		C78.02,49.68,77.79,50.95,77.36,52.47z"/>
	<path d="M120.1,130.29c0-2.26,0.02-4.39-0.02-6.52c0-0.25-0.27-0.57-0.5-0.73c-3.84-2.54-6.55-5.89-7.7-10.41
		c-0.06-0.25-0.52-0.57-0.8-0.58c-4.21-0.04-8.42-0.02-12.63-0.04c-0.59,0-0.78,0.25-0.91,0.77c-1.08,4.29-3.63,7.53-7.25,9.97
		c-0.69,0.46-0.92,0.94-0.9,1.74c0.05,1.88,0.02,3.77,0.02,5.8c1.13,0,2.15,0,3.17,0c0.79,0,1.57-0.02,2.36,0.01
		c0.95,0.03,1.59,0.64,1.64,1.49c0.05,0.86-0.54,1.65-1.46,1.67c-2.17,0.06-4.36,0.09-6.53-0.02c-1.36-0.06-2.32-1.1-2.36-2.47
		c-0.07-2.71-0.04-5.42-0.01-8.13c0.01-0.96,0.61-1.6,1.37-2.17c1.31-0.98,2.65-1.95,3.79-3.1c1.75-1.76,2.75-3.96,3.23-6.4
		c0.31-1.55,1.17-2.34,2.72-2.36c4.92-0.04,9.85-0.04,14.77,0c1.56,0.01,2.45,0.79,2.75,2.33c0.8,4.12,3.17,7.11,6.64,9.28
		c1.29,0.81,1.87,1.84,1.83,3.35c-0.06,2.17-0.01,4.35-0.02,6.53c-0.01,2.16-1.05,3.2-3.24,3.2c-4.89,0.01-9.78,0-14.67,0
		c-0.18,0-0.36,0.01-0.54-0.01c-1.07-0.09-1.71-0.74-1.67-1.7c0.04-0.91,0.68-1.5,1.73-1.5c4.57-0.01,9.14-0.01,13.7-0.01
		C119.06,130.29,119.49,130.29,120.1,130.29z"/>
</g>
</svg>
