<?xml version="1.0" encoding="utf-8"?>
<!-- Generator: Adobe Illustrator 26.0.0, SVG Export Plug-In . SVG Version: 6.00 Build 0)  -->
<svg version="1.1" id="Capa_1" xmlns="http://www.w3.org/2000/svg" xmlns:xlink="http://www.w3.org/1999/xlink" x="0px" y="0px"
	 viewBox="0 0 199.97 199.97" style="enable-background:new 0 0 199.97 199.97;" xml:space="preserve">
<style type="text/css">
	.st0{fill:#F7B614;}
	.st1{stroke:#000000;stroke-miterlimit:10;}
	.st2{fill:none;stroke:#000000;stroke-width:1.8748;stroke-miterlimit:10;}
</style>
<circle class="st0" cx="99.98" cy="99.98" r="99.98"/>
<path d="M161.56,101.37c-0.3,2.99-0.58,7.08-1.16,11.13c-0.82,5.67-5.19,7.93-10.5,7.44c-3.92-0.37-7.85-0.72-11.76-1.13
	c-0.9-0.09-1.42,0.24-1.97,0.91c-7.62,9.25-16.97,15.91-28.73,18.79c-6.42,1.57-12.94,2.01-19.49,0.69
	c-3.53-0.71-6.65-2.35-9.49-4.47c-7.88-5.89-16.91-8.02-26.53-8.16c-3.7-0.05-7.36,0.33-10.73,2.16c-1.72,0.93-3.77,0.3-4.85-1.26
	c-1.17-1.68-1.07-3.82,0.52-5.19c2.26-1.94,4.62-3.79,7.05-5.52c5.27-3.76,10.62-7.4,15.9-11.14c0.46-0.33,0.87-0.99,0.95-1.55
	c1.3-9.17,3.64-18,7.7-26.37c4.72-9.74,12.28-16.32,22.17-20.42c5.35-2.22,10.9-3.71,16.63-4.53c1.06-0.15,1.67-0.4,1.99-1.65
	c0.98-3.81,5.05-5.97,9.4-5.23c4.22,0.72,6.45,3.08,7.04,7.33c0.05,0.39,0.65,0.87,1.09,1.03c5.92,2.03,11.51,4.71,16.54,8.47
	c10.22,7.63,15.96,17.87,17.55,30.47C161.16,95.51,161.27,97.88,161.56,101.37z M123.96,113.55c0.12-0.35,0.24-0.61,0.3-0.88
	c1.21-5.79,2.64-11.55,3.57-17.39c1.16-7.32,1.36-14.7-0.1-22.04c-1.12-5.6-3.29-10.63-7.55-14.67c-2.17-2.06-4.26-2.5-7.14-1.47
	c-8.4,2.99-14.38,8.69-18.92,16.12c-4.39,7.19-7.01,15.07-8.72,23.27c-0.57,2.74-0.98,5.52-1.47,8.34
	C97.4,107.81,110.45,111.68,123.96,113.55z M41.74,123.5c0.04,0.08,0.09,0.15,0.13,0.23c0.91-0.24,1.82-0.53,2.75-0.7
	c8.45-1.56,16.68-0.4,24.78,2.11c4.59,1.42,8.44,4.19,12.35,6.85c3.6,2.46,7.62,3.62,11.95,3.7c14.41,0.26,26.53-4.97,36.5-15.3
	c0.47-0.49,0.9-1.02,1.48-1.7c-0.5-0.07-0.73-0.1-0.96-0.14c-5.98-0.89-12.02-1.51-17.93-2.73c-8.88-1.83-17.66-4.16-26.52-6.13
	c-7.11-1.58-14.31-2.5-21.61-1.61c-0.59,0.07-1.23,0.27-1.71,0.6c-5.07,3.46-10.12,6.96-15.15,10.46
	C45.74,120.56,43.75,122.04,41.74,123.5z M128.38,114.07c0.61,0.07,1.17,0.17,1.74,0.21c2.28,0.14,4.56,0.23,6.83,0.4
	c4.8,0.36,9.58,0.82,14.38,1.11c3.06,0.19,4.46-0.97,4.97-4c1.32-7.9,1.3-15.8-0.6-23.59c-3.06-12.54-11.01-21.1-22.38-26.7
	c-2.32-1.14-4.74-2.08-7.3-3.19c0.1,0.37,0.1,0.46,0.14,0.51c4.32,5.85,5.94,12.6,6.52,19.67c0.72,8.84-0.32,17.55-2.11,26.19
	C129.93,107.79,129.14,110.87,128.38,114.07z M79.86,104.11c0.01-0.05,0.05-0.21,0.07-0.37c0.98-7.29,2.6-14.43,5.21-21.32
	c3.5-9.25,8.35-17.59,16.31-23.79c0.09-0.07,0.14-0.19,0.4-0.59c-2.29,0.7-4.31,1.26-6.29,1.95c-6.75,2.35-12.99,5.62-17.66,11.16
	c-7.91,9.39-10.79,20.79-12.69,32.49C70.12,103.8,74.91,103.95,79.86,104.11z M113.5,51.77c2.65,0.18,5.18,0.35,7.65,0.51
	c-0.32-1.2-1.51-2.08-3.27-2.23C116.14,49.9,114.54,50.15,113.5,51.77z"/>
</svg>
