<?xml version="1.0" encoding="utf-8"?>
<!-- Generator: Adobe Illustrator 26.0.0, SVG Export Plug-In . SVG Version: 6.00 Build 0)  -->
<svg version="1.1" id="Capa_1" xmlns="http://www.w3.org/2000/svg" xmlns:xlink="http://www.w3.org/1999/xlink" x="0px" y="0px"
	 viewBox="0 0 199.97 199.97" style="enable-background:new 0 0 199.97 199.97;" xml:space="preserve">
<style type="text/css">
	.st0{fill:#F7B614;}
	.st1{stroke:#000000;stroke-miterlimit:10;}
	.st2{fill:none;stroke:#000000;stroke-width:1.8748;stroke-miterlimit:10;}
</style>
<circle class="st0" cx="99.98" cy="99.98" r="99.98"/>
<g>
	<path d="M76.73,161.33c-0.3-0.7-0.78-1.38-0.87-2.11c-0.26-2.3-0.39-4.61-0.55-6.92c-0.1-1.58-0.01-1.72,1.38-2.48
		c-0.24-2.96-0.51-5.93-0.73-8.91c-0.54-7.12-1.21-14.24-1.55-21.38c-0.57-11.96-1.16-23.93-1.28-35.9
		c-0.1-9.61,0.35-19.24,0.81-28.85c0.23-4.81,1.12-9.58,0.89-14.43c-0.06-1.2,0.52-1.69,1.8-1.7c3.08-0.02,6.15-0.01,9.23-0.01
		c12.3,0,24.6,0,36.9,0c2.11,0,2.51,0.31,2.39,2.42c-0.27,4.94,0.78,9.78,0.98,14.67c0.36,9.17,0.88,18.36,0.73,27.53
		c-0.22,13.37-0.84,26.73-1.54,40.09c-0.45,8.65-1.33,17.27-2.01,25.91c-0.02,0.2,0,0.39,0,0.67c1.3,0.29,1.47,1.23,1.37,2.37
		c-0.2,2.35-0.31,4.7-0.57,7.04c-0.08,0.69-0.56,1.33-0.86,1.99c-6.15,0-12.3,0-18.46,0c-0.26-0.55-0.7-1.08-0.76-1.66
		c-0.28-2.62-0.49-5.25-0.62-7.87c-0.03-0.51,0.28-1.34,0.66-1.5c0.8-0.35,0.78-0.85,0.74-1.51c-0.51-8.48-0.93-16.98-1.54-25.45
		c-0.77-10.54-1.7-21.08-2.57-31.61c-0.15-1.78-0.38-3.56-0.58-5.34c-0.24,0.12-0.3,0.23-0.31,0.34c-0.74,8.3-1.53,16.61-2.19,24.92
		c-0.6,7.52-1.09,15.04-1.59,22.57c-0.32,4.94-0.58,9.88-0.82,14.82c-0.02,0.34,0.19,0.88,0.45,1.02c0.8,0.43,1.03,1.05,0.96,1.88
		c-0.19,2.43-0.32,4.86-0.59,7.28c-0.08,0.73-0.54,1.42-0.82,2.13C89.03,161.33,82.88,161.33,76.73,161.33z M107.4,48.96
		c-0.05,0.18-0.11,0.3-0.11,0.41c-0.01,0.64,0.01,1.28-0.02,1.92c-0.26,4.8,0.84,9.73-1.4,14.42c0.65,0,1.16,0,1.68,0
		c2.6,0,5.19,0,7.79,0.01c0.94,0,1.56,0.49,1.56,1.44c0,0.88-0.6,1.35-1.48,1.41c-0.32,0.02-0.64,0.01-0.96,0.01
		c-3.91,0-7.83,0-11.74,0c-0.42,0-0.84,0-1.24,0c0,0.81,0,1.43,0,2.16c0.54,0,1.01,0,1.48,0c2.04,0,4.07-0.02,6.11,0.02
		c0.88,0.02,1.44,0.52,1.44,1.43c0,0.85-0.55,1.29-1.35,1.4c-0.39,0.05-0.8,0.03-1.2,0.03c-2.15,0-4.3,0-6.48,0
		c0,0.3-0.02,0.5,0,0.68c2.03,14.11,3.16,28.31,4.2,42.52c0.78,10.67,1.35,21.35,1.97,32.03c0.06,0.98,0.4,1.18,1.29,1.17
		c3.43-0.04,6.87-0.02,10.3-0.02c0.35,0,0.7-0.04,1.23-0.07c0.9-12.13,1.8-24.21,2.7-36.4c-0.74,0-1.17,0-1.6,0
		c-2.6,0-5.19-0.01-7.79,0c-0.98,0-1.76-0.26-1.93-1.36c-0.25-1.7-0.5-3.39-0.67-5.1c-0.11-1.13,0.43-1.66,1.67-1.69
		c1.76-0.05,3.51-0.02,5.27-0.02c1.75,0,3.49,0,5.34,0c0.75-15.66,0.78-31.2,0.03-46.5c-2.27-0.47-4.38-0.72-6.36-1.37
		c-2.42-0.79-3.3-2.29-3.32-4.81c-0.01-1.23,0-2.46,0-3.72c-0.65,0-1.15,0-1.71,0c-0.13,1.11,0.12,2.57-1.5,2.54
		c-1.56-0.03-1.38-1.45-1.49-2.54C108.47,48.96,107.93,48.96,107.4,48.96z M98.51,73.61c-0.5,0-0.89,0-1.28,0
		c-1.92,0-3.83,0.01-5.75,0c-1.37-0.01-2.06-0.51-2.04-1.47c0.02-0.92,0.67-1.38,1.98-1.4c0.44,0,0.88,0,1.32,0c1.9,0,3.81,0,5.72,0
		c0-0.79,0-1.44,0-2.16c-4.51,0-8.94,0-13.37,0c-1.34,0-2.07-0.54-2.05-1.48c0.02-0.9,0.71-1.39,2-1.39c3.24-0.01,6.47,0,9.71,0
		c1.23,0,2.46,0,3.74,0c0-5.65,0-11.17,0-16.82c-2.17,0-4.27,0-6.38,0c-0.39,0-0.78,0-1.21,0c-0.14,1.18,0.04,2.61-1.54,2.62
		c-1.62,0.01-1.31-1.48-1.51-2.55c-0.55,0-1.05,0-1.69,0c0,1.45,0,2.84,0,4.23c0,1.77-0.84,3.07-2.37,3.86
		c-0.88,0.45-1.83,0.8-2.8,1c-1.47,0.3-2.97,0.43-4.44,0.64c-0.65,6.18-0.84,35.91-0.22,38.65c0.41,0,0.85,0,1.28,0
		c3.4,0,6.79,0,10.19,0c1.93,0,2.33,0.44,2.12,2.38c-0.14,1.31-0.33,2.61-0.52,3.92c-0.21,1.45-0.65,1.85-2.12,1.85
		c-3.16,0.01-6.31,0-9.47,0c-0.42,0-0.84,0-1.48,0c1.05,14.94,2.09,29.69,3.14,44.5c4.22,0,8.13-0.01,12.04,0.01
		c0.69,0,0.75-0.38,0.78-0.91c0.47-7.97,0.95-15.94,1.43-23.91c0.02-0.26-0.03-0.53-0.05-0.91c-2.81,0-5.56,0.01-8.31,0
		c-1.63-0.01-2.04-0.42-2.06-2.07c-0.02-1.32-0.01-2.64,0-3.95c0.02-1.68,0.46-2.12,2.15-2.13c2.64-0.01,5.27-0.03,7.91,0.01
		c0.78,0.01,1.04-0.25,1.09-1.01c0.13-2.27,0.3-4.54,0.51-6.81c0.67-7.39,1.33-14.79,2.07-22.17C97.43,82.01,97.99,77.9,98.51,73.61
		z M93.22,158.4c0.13-1.86,0.25-3.63,0.38-5.45c-5.19,0-10.23,0-15.35,0c0.14,1.86,0.28,3.63,0.42,5.45
		C83.52,158.4,88.3,158.4,93.22,158.4z M106.35,152.95c0.13,1.86,0.26,3.63,0.38,5.45c4.89,0,9.69,0,14.55,0
		c0.14-1.83,0.27-3.6,0.41-5.45C116.55,152.95,111.52,152.95,106.35,152.95z M77.74,41.58c0,1.51,0,2.92,0,4.38
		c3.4,0,6.73,0,10.13,0c0-1.48,0-2.89,0-4.38C84.49,41.58,81.16,41.58,77.74,41.58z M122.25,41.58c-3.46,0-6.79,0-10.16,0
		c0,1.48,0,2.9,0,4.34c3.43,0,6.78,0,10.16,0C122.25,44.44,122.25,43.05,122.25,41.58z M101.48,48.95c0,5.57,0,11,0,16.45
		c1.67-0.27,2.75-2.41,2.81-4.47c0.1-3.15,0.08-6.3,0.11-9.45c0.01-0.82,0-1.65,0-2.53C103.35,48.95,102.45,48.95,101.48,48.95z
		 M83.25,48.96c-1.99,0-3.88,0-5.9,0c-0.23,2.25-0.45,4.44-0.71,6.95c1.88-0.37,3.49-0.59,5.04-1.06c0.61-0.19,1.42-0.89,1.5-1.45
		C83.39,51.98,83.25,50.49,83.25,48.96z M116.66,48.95c0,1.33,0.06,2.53-0.02,3.72c-0.07,1.09,0.4,1.85,1.37,2.11
		c1.66,0.45,3.37,0.74,5.31,1.14c-0.27-2.58-0.5-4.77-0.74-6.98C120.54,48.95,118.68,48.95,116.66,48.95z M90.91,41.57
		c0,1.5,0,2.94,0,4.37c2.59,0,5.08,0,7.56,0c0-1.5,0-2.92,0-4.37C95.91,41.57,93.42,41.57,90.91,41.57z M101.52,41.55
		c0,1.54,0,2.98,0,4.37c2.59,0,5.07,0,7.54,0c0-1.51,0-2.92,0-4.37C106.51,41.55,104.05,41.55,101.52,41.55z M76.35,102.57
		c3.5,0,6.83,0,10.27,0c0.09-0.77,0.18-1.5,0.28-2.28c-3.58,0-7.07,0-10.55,0C76.35,101.07,76.35,101.77,76.35,102.57z
		 M123.23,108.3c-3.01,0-5.94,0-8.94,0c0.02,0.34,0.05,0.61,0.04,0.88c-0.07,1.16,0.38,1.64,1.61,1.52
		c1.23-0.12,2.47-0.03,3.71-0.03c1.18,0,2.35,0,3.58,0C123.23,109.79,123.23,109.12,123.23,108.3z M86.23,119.04
		c0,0.83,0,1.53,0,2.26c2.62,0,5.17,0,7.73,0c0.04-0.81,0.08-1.5,0.12-2.26C91.41,119.04,88.88,119.04,86.23,119.04z"/>
	<path d="M103.62,45.17c-0.25-0.35-0.85-0.84-0.93-1.4c-0.13-0.86,0.51-1.41,1.4-1.4c0.82,0.01,1.36,0.53,1.37,1.35
		C105.45,44.61,104.92,45.09,103.62,45.17z"/>
</g>
</svg>
