<?xml version="1.0" encoding="utf-8"?>
<!-- Generator: Adobe Illustrator 26.0.0, SVG Export Plug-In . SVG Version: 6.00 Build 0)  -->
<svg version="1.1" id="Capa_1" xmlns="http://www.w3.org/2000/svg" xmlns:xlink="http://www.w3.org/1999/xlink" x="0px" y="0px"
	 viewBox="0 0 199.97 199.97" style="enable-background:new 0 0 199.97 199.97;" xml:space="preserve">
<style type="text/css">
	.st0{fill:#F7B614;}
	.st1{stroke:#000000;stroke-miterlimit:10;}
	.st2{fill:none;stroke:#000000;stroke-width:1.8748;stroke-miterlimit:10;}
</style>
<circle class="st0" cx="99.98" cy="99.98" r="99.98"/>
<g>
	<path d="M70.51,124.15c-1.86-0.56-5,0.64-4.91-2.89c0.08-3.26,3.03-1.9,4.97-2.58c0-1.51,0-3.08,0-4.85
		c-1.75-0.63-4.94,0.65-4.97-2.78c-0.03-3.44,3.14-1.98,5.02-2.86c0-1.51,0-3.08,0-4.65c-1.97-0.58-4.95,0.52-5.02-2.77
		c-0.07-3.42,3.08-2.06,5-2.88c0-1.51,0-3.08,0-4.65c-1.74-0.96-5.16,0.64-5-2.99c0.14-3.2,3.1-2.13,5.06-2.68c0-1.58,0-3.09,0-4.59
		c-1.73-1.05-5.17,0.63-5.06-2.99c0.1-3.28,3.08-2.15,5.03-2.71c0-1.61,0-3.19,0-4.76c-1.89-0.84-5.25,0.69-5.03-2.98
		c0.19-3.1,2.95-2.1,4.77-2.48c0.12-0.16,0.3-0.28,0.31-0.42c0.71-7.47,3.29-9.8,10.87-9.8c15.42,0,30.84,0,46.27,0
		c6.95,0,10.09,3.11,10.09,9.97c0,19.19,0,38.38,0,57.58c0,6.73-3.17,9.9-9.91,9.9c-15.17,0.01-30.33,0-45.5,0
		C73.86,134.3,71.9,132.65,70.51,124.15z M76.13,66.95c0.32,0.09,0.48,0.18,0.64,0.19c1.78,0.09,3.89-0.22,4.13,2.34
		c0.25,2.63-1.7,2.66-3.61,2.8c-0.51,0.04-1.26,0.83-1.37,1.37c-0.21,1.14-0.06,2.35-0.06,3.54c0.6,0.14,0.92,0.27,1.24,0.28
		c1.77,0.05,3.64,0.05,3.8,2.43c0.17,2.46-1.66,2.53-3.45,2.75c-0.58,0.07-1.39,0.88-1.53,1.48c-0.25,1.1-0.07,2.29-0.07,3.3
		c0.59,0.2,0.75,0.29,0.91,0.31c1.75,0.16,3.89-0.17,4.13,2.39c0.25,2.65-1.76,2.62-3.61,2.85c-0.52,0.07-1.26,0.82-1.37,1.37
		c-0.57,2.8-0.01,3.32,2.74,4.05c0.9,0.24,2.21,1.53,2.13,2.19c-0.12,0.97-1.2,1.98-2.12,2.62c-0.6,0.42-1.64,0.2-2.44,0.27
		c-0.9,4.04-0.75,4.15,2.84,5.29c0.79,0.25,1.76,1.53,1.74,2.31c-0.02,0.82-0.99,1.87-1.81,2.34c-0.79,0.46-1.93,0.32-2.86,0.43
		c-0.65,4.15-0.62,4.05,3.03,5.27c0.77,0.26,1.69,1.6,1.64,2.39c-0.05,0.82-1.04,1.83-1.88,2.3c-0.8,0.44-1.93,0.27-2.87,0.37
		c-0.28,3.73,0.82,5.06,4.2,5.07c16.02,0.02,32.04,0.02,48.06,0c3.36,0,4.53-1.14,4.54-4.44c0.02-19.53,0.02-39.06,0-58.6
		c0-3.16-1.2-4.32-4.4-4.32c-16.11-0.02-32.21-0.03-48.32,0C76.8,61.9,75.67,63.37,76.13,66.95z"/>
	<path d="M53.11,95.46c0-10.53-0.02-21.07,0.01-31.6c0.03-10.1,5.82-15.91,15.93-15.92c16.96-0.03,33.91-0.01,50.87-0.01
		c0.68,0,1.51-0.2,2.02,0.1c0.85,0.5,2.08,1.35,2.07,2.04c-0.01,0.92-0.87,2.09-1.7,2.67c-0.65,0.46-1.82,0.24-2.75,0.24
		c-16.87,0.01-33.74,0-50.61,0.01c-7.06,0-10.77,3.69-10.77,10.73c-0.01,21.24-0.01,42.48,0,63.72c0,6.35,2.95,9.74,9.3,10.7
		c1.63,0.25,2.79,0.93,2.68,2.78c-0.11,1.94-1.44,2.27-3.07,2.25c-7.55-0.08-13.84-6.5-13.93-14.57
		c-0.13-11.05-0.03-22.09-0.03-33.14C53.11,95.46,53.11,95.46,53.11,95.46z"/>
	<path d="M148.39,95.61c0,10.54,0.02,21.07-0.01,31.61c-0.02,10.15-5.79,15.97-15.88,15.99c-16.62,0.03-33.24,0.01-49.86,0
		c-0.77,0-1.68,0.19-2.27-0.15c-0.78-0.45-1.73-1.28-1.82-2.04c-0.08-0.77,0.6-1.96,1.3-2.41c0.78-0.49,1.96-0.45,2.97-0.45
		c16.62-0.02,33.24-0.01,49.86-0.02c6.88,0,10.63-3.74,10.64-10.61c0.01-21.33,0.01-42.66,0-63.99c0-6.16-3.08-9.68-9.21-10.54
		c-1.76-0.25-2.96-0.98-2.75-2.95c0.21-1.95,1.64-2.12,3.22-2.08c7.59,0.2,13.69,6.59,13.78,14.73
		C148.46,73.68,148.38,84.64,148.39,95.61C148.38,95.61,148.39,95.61,148.39,95.61z"/>
	<path d="M106.42,125.02c-5.82,0-11.63,0.01-17.45,0c-3.04-0.01-3.79-0.77-3.83-3.75c-0.02-1.63-0.01-3.25,0-4.88
		c0.02-8,4.28-14.36,11.75-17.24c1.14-0.44,2.71-0.43,3.88-0.04c3.81,1.26,7.48,1.25,11.3,0.01c1.24-0.4,2.9-0.34,4.11,0.14
		c7.44,2.98,11.48,9.12,11.5,17.11c0,1.8-0.04,3.59,0.01,5.39c0.07,2.49-1.32,3.27-3.56,3.26
		C118.22,125,112.32,125.02,106.42,125.02z M106.28,119.97c4.71,0,9.42,0,14.13,0c1.13,0,2.14,0.1,2.27-1.62
		c0.44-5.95-1.59-10.6-6.91-13.51c-0.91-0.5-2.28-0.63-3.3-0.38c-4.09,1-8.1,0.98-12.18,0c-1.02-0.24-2.39-0.11-3.29,0.4
		c-4.73,2.65-7.08,6.66-6.92,12.22c0.06,2.18,0.51,3.03,2.85,2.94C97.37,119.84,101.83,119.97,106.28,119.97z"/>
	<path d="M106.81,71.1c7.3,0.17,13.11,6.17,13.03,13.43c-0.09,7.41-6.35,13.41-13.82,13.24c-7.16-0.16-13.18-6.4-13.04-13.51
		C93.14,76.71,99.22,70.92,106.81,71.1z M106.32,76.13c-4.61,0.05-8.31,3.86-8.19,8.43c0.12,4.45,3.88,8.17,8.27,8.18
		c4.49,0.01,8.35-3.87,8.36-8.39C114.76,79.84,110.9,76.09,106.32,76.13z"/>
</g>
</svg>
