<?xml version="1.0" encoding="utf-8"?>
<!-- Generator: Adobe Illustrator 26.0.0, SVG Export Plug-In . SVG Version: 6.00 Build 0)  -->
<svg version="1.1" id="Capa_1" xmlns="http://www.w3.org/2000/svg" xmlns:xlink="http://www.w3.org/1999/xlink" x="0px" y="0px"
	 viewBox="0 0 199.97 199.97" style="enable-background:new 0 0 199.97 199.97;" xml:space="preserve">
<style type="text/css">
	.st0{fill:#F7B614;}
	.st1{stroke:#000000;stroke-miterlimit:10;}
	.st2{fill:none;stroke:#000000;stroke-width:1.8748;stroke-miterlimit:10;}
</style>
<circle class="st0" cx="99.98" cy="99.98" r="99.98"/>
<g>
	<path d="M78.24,37.71c14.37,0,28.74,0,43.11,0c0.11,0.33,0.19,0.68,0.35,0.99c1.75,3.53,3.56,7.04,5.26,10.6
		c0.48,1,1.02,1.36,2.15,1.4c10.54,0.34,19.55,8.18,21.34,18.54c1.16,6.75,2.28,13.51,3.41,20.27c0.35,2.1,0.68,4.21,1.04,6.45
		c-6.6,0-13.04,0-19.53,0c0,5-0.01,9.88,0.02,14.76c0,0.62,0.14,1.28,0.37,1.86c4.51,11.4,9.04,22.8,13.56,34.19
		c0.16,0.39,0.28,0.8,0.44,1.25c-33.33,0-66.57,0-99.92,0c0.19-0.5,0.34-0.93,0.51-1.35c4.52-11.4,9.05-22.79,13.56-34.19
		c0.2-0.52,0.32-1.11,0.32-1.66c0.03-4.6,0.02-9.19,0.01-13.79c0-0.35-0.03-0.69-0.05-1.11c-6.57,0-13.07,0-19.56,0
		c0-0.07,0-0.14,0-0.22c0.06-0.13,0.15-0.25,0.17-0.38c1.38-8.28,2.8-16.54,4.11-24.83c1.83-11.58,10.53-19.39,22.24-19.81
		c0.65-0.02,0.93-0.27,1.2-0.81c1.87-3.79,3.78-7.57,5.66-11.36C78.12,38.26,78.16,37.97,78.24,37.71z M147.19,89.39
		c0-0.25,0.02-0.4,0-0.54c-1.01-6.09-1.96-12.18-3.05-18.25c-1.43-7.95-8.02-13.42-16.06-13.52c-0.79-0.01-1.32,0.24-1.87,0.79
		c-4.04,4.08-8.12,8.13-12.16,12.21c-0.53,0.53-0.9,0.57-1.55,0.23c-2.8-1.45-5.64-2.83-8.46-4.24c-0.29-0.15-0.6-0.27-0.94-0.42
		c0,14.55,0,28.93,0,43.3c8.63,0,17.19,0,25.82,0c0-11.92,0-23.75,0-35.63c2.17,0,4.26,0,6.47,0c0,5.39,0,10.72,0,16.06
		C139.38,89.39,143.25,89.39,147.19,89.39z M70.74,73.32c0,11.95,0,23.81,0,35.64c8.67,0,17.23,0,25.74,0c0-14.46,0-28.83,0-43.34
		c-3.1,1.54-6.09,2.99-9.03,4.54c-0.9,0.47-1.43,0.44-2.17-0.32c-3.99-4.08-8.05-8.1-12.1-12.12c-0.3-0.3-0.76-0.57-1.16-0.59
		c-7.8-0.35-14.91,5.2-16.42,12.89c-0.73,3.73-1.29,7.49-1.92,11.24c-0.45,2.68-0.89,5.37-1.34,8.1c4.01,0,7.93,0,11.93,0
		c0-5.38,0-10.68,0-16.03C66.41,73.32,68.48,73.32,70.74,73.32z M78.5,141.52c6.1,0,12.04,0,17.98,0c0-8.7,0-17.32,0-25.98
		c-3.01,0-5.95,0-8.95,0C84.54,124.17,81.54,132.79,78.5,141.52z M103.11,115.54c0,8.73,0,17.36,0,25.98c6.01,0,11.94,0,17.98,0
		c-3.03-8.72-6.03-17.34-9.03-25.98C109.06,115.54,106.12,115.54,103.11,115.54z M59.27,141.59c3.92,0,7.66-0.03,11.39,0.02
		c0.82,0.01,1.1-0.3,1.34-1c2.02-5.9,4.08-11.79,6.12-17.68c0.84-2.43,1.69-4.86,2.56-7.37c-3.74,0-7.35,0-11.06,0
		C66.21,124.15,62.78,132.77,59.27,141.59z M140.24,141.59c-0.08-0.3-0.11-0.47-0.18-0.63c-3.28-8.26-6.58-16.52-9.84-24.79
		c-0.21-0.54-0.5-0.67-1.03-0.67c-2.62,0.02-5.24,0.01-7.86,0.01c-0.77,0-1.53,0-2.29,0c0,0.23-0.02,0.3,0,0.37
		c2.91,8.36,5.81,16.73,8.74,25.08c0.1,0.27,0.52,0.6,0.79,0.61C132.4,141.6,136.24,141.59,140.24,141.59z M99.71,55.54
		c3.79-3.79,7.55-7.55,11.27-11.27c-7.42,0-14.96,0-22.49,0C92.27,48.07,96.01,51.83,99.71,55.54z M81.19,46.59
		c-1.02,2.05-2.1,4.19-3.13,6.34c-0.08,0.17,0.09,0.55,0.26,0.72c2.9,2.93,5.82,5.85,8.76,8.75c0.18,0.18,0.62,0.35,0.81,0.25
		c2.13-1.02,4.23-2.09,6.27-3.11C89.81,55.21,85.53,50.93,81.19,46.59z M118.43,46.64c-4.34,4.35-8.61,8.63-12.91,12.93
		c1.98,0.99,4.04,2.05,6.14,3.05c0.22,0.1,0.7-0.05,0.9-0.25c2.91-2.87,5.81-5.77,8.68-8.68c0.2-0.2,0.36-0.68,0.26-0.9
		C120.49,50.7,119.43,48.63,118.43,46.64z"/>
	<path d="M90.01,82.93c-4.28,0-8.5,0-12.78,0c0-2.13,0-4.22,0-6.37c4.26,0,8.48,0,12.78,0C90.01,78.63,90.01,80.73,90.01,82.93z"/>
</g>
</svg>
